<svg xmlns="http://www.w3.org/2000/svg" xmlns:xlink="http://www.w3.org/1999/xlink" viewBox="0 0 108.65 124.36"><defs><style>.cls-1{isolation:isolate;}.cls-2{fill:url(#Degradado_sin_nombre_41);}.cls-3{fill:url(#Degradado_sin_nombre_42);}.cls-4{opacity:0.15;mix-blend-mode:multiply;}.cls-5{fill:url(#Degradado_sin_nombre_43);}.cls-6{fill:url(#Degradado_sin_nombre_43-2);}</style><linearGradient id="Degradado_sin_nombre_41" x1="24.5" y1="-2.43" x2="24.5" y2="97.16" gradientUnits="userSpaceOnUse"><stop offset="0" stop-color="#9fff63"/><stop offset="0.55" stop-color="#91c491"/><stop offset="1" stop-color="#421973"/></linearGradient><linearGradient id="Degradado_sin_nombre_42" x1="17.89" y1="7.88" x2="32.61" y2="96.18" gradientUnits="userSpaceOnUse"><stop offset="0" stop-color="#bffdff"/><stop offset="0.54" stop-color="#8fa7eb"/><stop offset="1" stop-color="#421775"/></linearGradient><linearGradient id="Degradado_sin_nombre_43" x1="9.03" y1="99.29" x2="99.01" y2="125" gradientUnits="userSpaceOnUse"><stop offset="0" stop-color="#e863ff"/><stop offset="0.51" stop-color="#9b60e0"/><stop offset="1" stop-color="#234080"/></linearGradient><linearGradient id="Degradado_sin_nombre_43-2" x1="37.68" y1="86.91" x2="51.53" y2="121.03" xlink:href="#Degradado_sin_nombre_43"/></defs><title>Asset 2logo</title><g class="cls-1"><g id="Layer_2" data-name="Layer 2"><g id="OBJECTS"><path class="cls-2" d="M0,0H0V100.1a24.26,24.26,0,0,0,24.26,24.26H49V100.1H38.53a14.27,14.27,0,0,1-14.27-14h0V24.26A24.26,24.26,0,0,0,0,0Z"/><path class="cls-3" d="M38.53,100.1a14.27,14.27,0,0,1-14.27-14V24.26c0-.41,0-.83,0-1.24s0-.69-.08-1a1.21,1.21,0,0,0,0-.19,24.12,24.12,0,0,0-6.9-14.59h0a24.23,24.23,0,0,0-9.59-6,41.32,41.32,0,0,1,8,24.43V86.91a24.26,24.26,0,0,0,24.26,24.26H49V100.1Z"/><path class="cls-4" d="M24.26,116.65H49V100.1H38.53a14.27,14.27,0,0,1-12.66-7.71H14a14,14,0,0,1-14-14v14H0A24.26,24.26,0,0,0,24.26,116.65Z"/><path class="cls-5" d="M84.38,100.1H14a14,14,0,0,1-14-14v14H0a24.26,24.26,0,0,0,24.26,24.26h84.39A24.27,24.27,0,0,0,84.38,100.1Z"/><path class="cls-6" d="M8.7,112.32a13.13,13.13,0,0,1-6.24-1.58,24.24,24.24,0,0,0,21.8,13.62H97.78a22.88,22.88,0,0,0-20.13-12Z"/></g></g></g></svg>